<svg width="28" height="28" viewBox="0 0 28 28" fill="none" xmlns="http://www.w3.org/2000/svg">
<g clip-path="url(#clip0_86_1843)" filter="url(#filter0_d_86_1843)">
<path d="M22 20H6C4.8959 19.9989 4.00109 19.1041 4 18V2C4.00109 0.895899 4.8959 0.00109291 6 0H22C23.1041 0.00109291 23.9989 0.895899 24 2V18C23.9989 19.1041 23.1041 19.9989 22 20V20ZM23.3333 2C23.3333 1.26363 22.7364 0.666679 22 0.666679H6C5.26363 0.666679 4.66668 1.26363 4.66668 2V18C4.66668 18.7364 5.26363 19.3333 6 19.3333H22C22.7364 19.3333 23.3333 18.7364 23.3333 18V2Z" fill="#78C081"/>
<path d="M6.50005 16.3334C7.14439 16.3334 7.66673 16.8557 7.66673 17.5001C7.66673 18.1444 7.14439 18.6667 6.50005 18.6667C5.85572 18.6667 5.33337 18.1444 5.33337 17.5001C5.33337 16.8557 5.85572 16.3334 6.50005 16.3334ZM6.50005 18.0001C6.77619 18.0001 7.00005 17.7762 7.00005 17.5001C7.00005 17.2239 6.77619 17.0001 6.50005 17.0001C6.22392 17.0001 6.00005 17.2239 6.00005 17.5001C6.00005 17.7762 6.22392 18.0001 6.50005 18.0001Z" fill="#78C081"/>
<path d="M21.5001 18.6667C20.8557 18.6667 20.3334 18.1444 20.3334 17.5001C20.3334 16.8557 20.8557 16.3334 21.5001 16.3334C22.1444 16.3334 22.6667 16.8557 22.6667 17.5001C22.6667 17.8095 22.5438 18.1062 22.325 18.325C22.1062 18.5438 21.8095 18.6667 21.5001 18.6667ZM21.5001 17.0001C21.2239 17.0001 21.0001 17.2239 21.0001 17.5001C21.0001 17.7762 21.2239 18.0001 21.5001 18.0001C21.7762 18.0001 22.0001 17.7762 22.0001 17.5001C22.0001 17.2239 21.7762 17.0001 21.5001 17.0001Z" fill="#78C081"/>
<path d="M6.50005 3.66675C5.85572 3.66675 5.33337 3.1444 5.33337 2.50007C5.33337 1.85573 5.85572 1.33339 6.50005 1.33339C7.14439 1.33339 7.66673 1.85573 7.66673 2.50007C7.66673 3.1444 7.14439 3.66675 6.50005 3.66675ZM6.50005 2.00007C6.22392 2.00007 6.00005 2.22394 6.00005 2.50007C6.00005 2.7762 6.22392 3.00007 6.50005 3.00007C6.77619 3.00007 7.00005 2.7762 7.00005 2.50007C7.00005 2.22394 6.77619 2.00007 6.50005 2.00007Z" fill="#78C081"/>
<path d="M21.5001 3.66675C20.8557 3.66675 20.3334 3.1444 20.3334 2.50007C20.3334 1.85573 20.8557 1.33339 21.5001 1.33339C22.1444 1.33339 22.6667 1.85573 22.6667 2.50007C22.6667 3.1444 22.1444 3.66675 21.5001 3.66675ZM21.5001 2.00007C21.2239 2.00007 21.0001 2.22394 21.0001 2.50007C21.0001 2.7762 21.2239 3.00007 21.5001 3.00007C21.7762 3.00007 22.0001 2.7762 22.0001 2.50007C22.0001 2.22394 21.7762 2.00007 21.5001 2.00007Z" fill="#78C081"/>
<path d="M21.6496 14.3431L21.0496 15.3431C20.9287 15.5434 20.712 15.6661 20.478 15.6667H7.52194C7.28795 15.666 7.07131 15.5433 6.95026 15.3431L6.35026 14.3431C6.22666 14.1371 6.22346 13.8806 6.34178 13.6716C6.4601 13.4626 6.68174 13.3334 6.92194 13.3334H21.078C21.3181 13.3334 21.5398 13.4626 21.6581 13.6716C21.7764 13.8806 21.7732 14.1371 21.6496 14.3431ZM6.92194 14.0001L7.52194 15.0001H20.478L21.078 14.0001H6.92194Z" fill="#78C081"/>
<path d="M21.6496 11.3431L21.0496 12.3431C20.9287 12.5434 20.712 12.6661 20.478 12.6667H7.52194C7.28795 12.666 7.07131 12.5433 6.95026 12.3431L6.35026 11.3431C6.22666 11.1371 6.22346 10.8806 6.34178 10.6716C6.4601 10.4626 6.68174 10.3334 6.92194 10.3334H21.078C21.3181 10.3334 21.5398 10.4626 21.6581 10.6716C21.7764 10.8806 21.7732 11.1371 21.6496 11.3431ZM6.92194 11.0001L7.52194 12.0001H20.478L21.078 11.0001H6.92194Z" fill="#78C081"/>
<path d="M21.6496 8.34308L21.0496 9.34308C20.9287 9.54339 20.712 9.66608 20.478 9.66675H7.52194C7.28795 9.66597 7.07131 9.54331 6.95026 9.34308L6.35026 8.34308C6.22666 8.13714 6.22346 7.88061 6.34178 7.67159C6.4601 7.46257 6.68174 7.33339 6.92194 7.33339H21.078C21.3181 7.33339 21.5398 7.46257 21.6581 7.67159C21.7764 7.88061 21.7732 8.1371 21.6496 8.34308ZM6.92194 8.00007L7.52194 9.00007H20.478L21.078 8.00007H6.92194Z" fill="#78C081"/>
<path d="M21.0493 6.34343C20.9283 6.54351 20.7118 6.66604 20.478 6.66675H7.52194C7.28795 6.66597 7.07131 6.54331 6.95026 6.34308L6.35026 5.34308C6.22666 5.13714 6.22346 4.88062 6.34178 4.67159C6.4601 4.46257 6.68174 4.33339 6.92194 4.33339H21.078C21.3181 4.33339 21.5397 4.46257 21.6581 4.67159C21.7764 4.88062 21.7732 5.1371 21.6496 5.34308L21.0493 6.34343ZM6.92194 5.00011L7.52194 6.00011H20.478L21.078 5.00011H6.92194Z" fill="#78C081"/>
</g>
<defs>
<filter id="filter0_d_86_1843" x="0" y="0" width="28" height="28" filterUnits="userSpaceOnUse" color-interpolation-filters="sRGB">
<feFlood flood-opacity="0" result="BackgroundImageFix"/>
<feColorMatrix in="SourceAlpha" type="matrix" values="0 0 0 0 0 0 0 0 0 0 0 0 0 0 0 0 0 0 127 0" result="hardAlpha"/>
<feOffset dy="4"/>
<feGaussianBlur stdDeviation="2"/>
<feComposite in2="hardAlpha" operator="out"/>
<feColorMatrix type="matrix" values="0 0 0 0 0 0 0 0 0 0 0 0 0 0 0 0 0 0 0.25 0"/>
<feBlend mode="normal" in2="BackgroundImageFix" result="effect1_dropShadow_86_1843"/>
<feBlend mode="normal" in="SourceGraphic" in2="effect1_dropShadow_86_1843" result="shape"/>
</filter>
<clipPath id="clip0_86_1843">
<rect width="20" height="20" fill="white" transform="matrix(1 0 0 -1 4 20)"/>
</clipPath>
</defs>
</svg>
